<svg width="1044" height="902" viewBox="0 0 1044 902" fill="none" xmlns="http://www.w3.org/2000/svg">
<rect width="1044" height="902" fill="#090202"/>
<path d="M241.54 557.042C235.352 557.042 230.091 555.261 225.759 551.697C221.426 548.042 219.261 543.702 219.261 538.677C219.261 533.559 221.426 529.174 225.759 525.519C230.091 521.864 235.352 520.037 241.54 520.037C247.832 520.037 253.143 521.864 257.475 525.519C261.911 529.174 264.128 533.559 264.128 538.677C264.128 543.702 261.911 548.042 257.475 551.697C253.143 555.261 247.832 557.042 241.54 557.042Z" fill="#39F839"/>
<path d="M488.942 554.027H448.715L342.733 409.568C340.051 405.913 337.833 402.12 336.08 398.192H335.151C335.976 402.396 336.389 411.396 336.389 425.192V554.027H300.803V357.485H343.66L446.085 498.518C450.417 504.367 453.202 508.387 454.44 510.579H455.058C454.028 505.372 453.511 496.554 453.511 484.127V357.485H488.942V554.027Z" fill="#E31177"/>
<path d="M662.233 554.027H537.685V357.485H657.283V385.172H574.509V440.817H650.786V468.365H574.509V526.478H662.233V554.027Z" fill="#6B15D5"/>
<path d="M839.24 385.172H775.496V554.027H738.671V385.172H675.082V357.485H839.24V385.172Z" fill="#CD1E1E"/>
</svg>
